Simulation
nRows=24
nColumns=15
endheader
time  TH_x TH_y TH_z SC_y  SC_z  SC_x  AC_y  AC_z  AC_x  GH_y  GH_z  GH_yy  EL_x  PS_y
0.0  0.000000  0.000000  0.000000  -40.97484877243665  6.293857566463187  5.290427962726946  44.245125695865276  6.922168466026367  -0.06317168455906608  174.32445055111944  6.901872157934512  -149.00934991588014  22.678543498803485  120.000000
0.05745  0.000000  0.000000  0.000000  -38.819178083423424  5.674495014679742  2.931981790386345  43.328644644764374  7.258054110970566  0.13441077584556457  167.93726017721022  3.561194115248159  -143.89701134261782  22.086889000928224  120.000000
0.1149  0.000000  0.000000  0.000000  -36.8294023128064  4.903267452106796  0.571622041008943  42.50059948362465  7.399562419810869  0.3793380732290414  106.93452101126044  0.8892097665565699  -84.16027995212664  21.678613157859047  120.000000
0.17235  0.000000  0.000000  0.000000  -35.11432413843732  4.040005286754588  -1.694415473662772  41.80683513900006  7.399437725823445  0.6921619326839856  20.165109272622544  3.0310185958337934  1.3361946402237619  21.533339173604464  120.000000
0.2298  0.000000  0.000000  0.000000  -33.72567273862777  3.1606031158752224  -3.8022336742760388  41.27716322691062  7.341187957651108  1.0929460610886659  12.437342092877206  6.0314700931489815  7.770458452431708  21.660034213907657  120.000000
0.28725  0.000000  0.000000  0.000000  -32.66957200228873  2.3464413858883617  -5.725415643306766  40.905172544894505  7.3243563511815335  1.603765923560546  9.752828530080444  9.074534539375996  9.113619985909772  21.99500664300189  120.000000
0.3447  0.000000  0.000000  0.000000  -31.92954565432088  1.6758080163248763  -7.466879211316504  40.65880298059131  7.436396952271067  2.2433860558051153  7.946252464479579  12.188729873634873  9.495050841220609  22.437295684311582  120.000000
0.40215  0.000000  0.000000  0.000000  -31.491274360269106  1.2062068952595566  -9.026029672774673  40.49795313298681  7.718446292786549  3.0042708191030596  6.311607045714719  15.432883578781057  9.585982661513823  22.87526679263299  120.000000
0.4596  0.000000  0.000000  0.000000  -31.343877805776714  0.9785438719857755  -10.37599230388989  40.389543621083085  8.148545311009343  3.8463253584727015  4.734822008403394  18.85727908392684  9.482483871391953  23.21525426451504  120.000000
0.51705  0.000000  0.000000  0.000000  -31.47440435702733  1.017970574691349  -11.471290237903741  40.31559805135142  8.663062815258797  4.7215656404494135  3.2443353136070012  22.480405734921938  9.163859380091896  23.395521585761273  120.000000
0.5745  0.000000  0.000000  0.000000  -31.86245684082746  1.3379911416171821  -12.265026566099106  40.28145694322643  9.1873948652631  5.597591665053878  1.8997848188645325  26.273752462235418  8.605595270627326  23.394060784869495  120.000000
0.63195  0.000000  0.000000  0.000000  -32.491249625970305  1.933918235707628  -12.745342739077053  40.312307945002345  9.673524914768059  6.481358796391072  0.764905062196687  30.17160599626708  7.795392639863041  23.22044343382649  120.000000
0.6894  0.000000  0.000000  0.000000  -33.356745571732745  2.777503570882717  -12.945544738811117  40.44701162067158  10.107160541598716  7.41269445570204  -0.08958866588816763  34.09704160182774  6.715894696555564  22.903870550131376  120.000000
0.74685  0.000000  0.000000  0.000000  -34.46388644673778  3.811854989651377  -12.902502296522377  40.73065412353353  10.488462498231856  8.419372021127806  -0.6032919332482096  37.981337594074084  5.34692843050249  22.481383951790203  120.000000
0.8043  0.000000  0.000000  0.000000  -35.80981468854012  4.967334680452431  -12.635839473977391  41.199970819527834  10.824389198611724  9.499783409848092  -0.7454483682727016  41.764121909099266  3.676053310775359  21.991670705005102  120.000000
0.86175  0.000000  0.000000  0.000000  -37.37219440770439  6.172532038107627  -12.150154203916225  41.86672045799772  11.135157394762699  10.623720900201436  -0.5310305960188083  45.39093696930981  1.714613563110756  21.47133457931805  120.000000
0.9192  0.000000  0.000000  0.000000  -39.10202993796105  7.362134138292031  -11.440926895513176  42.7051940984964  11.45258476418531  11.736257545659676  -0.022650341652922925  48.80777203735285  -0.49040532475206383  20.95107399064729  120.000000
0.97665  0.000000  0.000000  0.000000  -40.9234457138131  8.48388343334199  -10.500946168650705  43.650868632659275  11.810530030167042  12.770140070735682  0.6835250968330226  51.957090499081474  -2.853793111144788  20.45180337795213  120.000000
1.0341  0.000000  0.000000  0.000000  -42.73441305920142  9.501985486484577  -9.325413654455593  44.61244998391469  12.23266816581359  13.661189232133266  1.4858313248842945  54.77751760399002  -5.2594595632312595  19.983729648975764  120.000000
1.09155  0.000000  0.000000  0.000000  -44.42581289096462  10.40716747635199  -7.913439972831135  45.493173200160435  12.721287242866838  14.364347611022374  2.3032336283892536  57.21469654797491  -7.5776147672445235  19.546835931334876  120.000000
1.149  0.000000  0.000000  0.000000  -45.916947806546624  11.212656186379858  -6.273824575466318  46.211393047794296  13.256082968618808  14.857243412329854  3.082250395334958  59.235078353422544  -9.681431261671632  19.136941841675185  120.000000
1.20645  0.000000  0.000000  0.000000  -47.17542550335761  11.93159738330123  -4.435515634175466  46.72195563497279  13.801625541130738  15.144274509430383  3.794833253947515  60.831065258177865  -11.469988650113736  18.749538944215665  120.000000
1.2639  0.000000  0.000000  0.000000  -48.21156934114862  12.564080024443165  -2.4563833789731024  47.025851812616665  14.318917046899381  15.253082458550002  4.435823324561477  62.01869434764931  -12.893266480026407  18.384706749067625  120.000000
1.32135  0.000000  0.000000  0.000000  -49.055928378812304  13.096702966837071  -0.42695693312170196  47.161526543109225  14.773273998398121  15.223316614087805  5.012392111192188  62.83606672065106  -13.96154032293042  18.048009527032058  120.000000
